<mxfile host="app.diagrams.net" modified="2023-10-29T15:40:40.669Z" agent="Mozilla/5.0 (Windows NT 10.0; Win64; x64) AppleWebKit/537.36 (KHTML, like Gecko) Chrome/118.0.0.0 Safari/537.36" etag="Lt5lepCiH4bsfMyxcc3p" version="22.0.8" type="github">
  <diagram id="C5RBs43oDa-KdzZeNtuy" name="Page-1">
    <mxGraphModel dx="2901" dy="1951" grid="1" gridSize="10" guides="1" tooltips="1" connect="1" arrows="1" fold="1" page="1" pageScale="1" pageWidth="827" pageHeight="1169" math="0" shadow="0">
      <root>
        <mxCell id="WIyWlLk6GJQsqaUBKTNV-0" />
        <mxCell id="WIyWlLk6GJQsqaUBKTNV-1" parent="WIyWlLk6GJQsqaUBKTNV-0" />
        <mxCell id="Ay1wKtTU1ei7NYkO6In1-0" style="edgeStyle=orthogonalEdgeStyle;rounded=0;orthogonalLoop=1;jettySize=auto;html=1;exitX=0.5;exitY=1;exitDx=0;exitDy=0;" edge="1" parent="WIyWlLk6GJQsqaUBKTNV-1" source="WIyWlLk6GJQsqaUBKTNV-3">
          <mxGeometry relative="1" as="geometry">
            <mxPoint x="440" y="250" as="targetPoint" />
          </mxGeometry>
        </mxCell>
        <mxCell id="WIyWlLk6GJQsqaUBKTNV-3" value="Make A payment&amp;nbsp;" style="rounded=1;whiteSpace=wrap;html=1;fontSize=12;glass=0;strokeWidth=1;shadow=0;" parent="WIyWlLk6GJQsqaUBKTNV-1" vertex="1">
          <mxGeometry x="380" y="80" width="120" height="40" as="geometry" />
        </mxCell>
        <mxCell id="Ay1wKtTU1ei7NYkO6In1-6" style="edgeStyle=orthogonalEdgeStyle;rounded=0;orthogonalLoop=1;jettySize=auto;html=1;" edge="1" parent="WIyWlLk6GJQsqaUBKTNV-1" source="Ay1wKtTU1ei7NYkO6In1-1">
          <mxGeometry relative="1" as="geometry">
            <mxPoint x="440" y="490" as="targetPoint" />
          </mxGeometry>
        </mxCell>
        <mxCell id="Ay1wKtTU1ei7NYkO6In1-1" value="Payment Service" style="whiteSpace=wrap;html=1;aspect=fixed;" vertex="1" parent="WIyWlLk6GJQsqaUBKTNV-1">
          <mxGeometry x="380" y="250" width="120" height="120" as="geometry" />
        </mxCell>
        <mxCell id="Ay1wKtTU1ei7NYkO6In1-2" value="DB" style="shape=cylinder3;whiteSpace=wrap;html=1;boundedLbl=1;backgroundOutline=1;size=15;" vertex="1" parent="WIyWlLk6GJQsqaUBKTNV-1">
          <mxGeometry x="240" y="250" width="80" height="110" as="geometry" />
        </mxCell>
        <mxCell id="Ay1wKtTU1ei7NYkO6In1-4" value="The payment Service subtract amount paid and amount owed&lt;br&gt;and Save the paid and unpaid amount in the DB for this month" style="shape=note;size=20;whiteSpace=wrap;html=1;" vertex="1" parent="WIyWlLk6GJQsqaUBKTNV-1">
          <mxGeometry x="550" y="240" width="180" height="130" as="geometry" />
        </mxCell>
        <mxCell id="Ay1wKtTU1ei7NYkO6In1-11" style="edgeStyle=orthogonalEdgeStyle;rounded=0;orthogonalLoop=1;jettySize=auto;html=1;" edge="1" parent="WIyWlLk6GJQsqaUBKTNV-1" source="Ay1wKtTU1ei7NYkO6In1-10">
          <mxGeometry relative="1" as="geometry">
            <mxPoint x="440" y="700" as="targetPoint" />
          </mxGeometry>
        </mxCell>
        <mxCell id="Ay1wKtTU1ei7NYkO6In1-13" value="Yes" style="edgeLabel;html=1;align=center;verticalAlign=middle;resizable=0;points=[];" vertex="1" connectable="0" parent="Ay1wKtTU1ei7NYkO6In1-11">
          <mxGeometry x="-0.2265" y="3" relative="1" as="geometry">
            <mxPoint as="offset" />
          </mxGeometry>
        </mxCell>
        <mxCell id="Ay1wKtTU1ei7NYkO6In1-29" style="edgeStyle=orthogonalEdgeStyle;rounded=0;orthogonalLoop=1;jettySize=auto;html=1;" edge="1" parent="WIyWlLk6GJQsqaUBKTNV-1" source="Ay1wKtTU1ei7NYkO6In1-10">
          <mxGeometry relative="1" as="geometry">
            <mxPoint x="210" y="550" as="targetPoint" />
          </mxGeometry>
        </mxCell>
        <mxCell id="Ay1wKtTU1ei7NYkO6In1-31" value="No" style="edgeLabel;html=1;align=center;verticalAlign=middle;resizable=0;points=[];" vertex="1" connectable="0" parent="Ay1wKtTU1ei7NYkO6In1-29">
          <mxGeometry x="0.0589" y="4" relative="1" as="geometry">
            <mxPoint as="offset" />
          </mxGeometry>
        </mxCell>
        <mxCell id="Ay1wKtTU1ei7NYkO6In1-10" value="If paid in full" style="rhombus;whiteSpace=wrap;html=1;" vertex="1" parent="WIyWlLk6GJQsqaUBKTNV-1">
          <mxGeometry x="370" y="490" width="140" height="120" as="geometry" />
        </mxCell>
        <mxCell id="Ay1wKtTU1ei7NYkO6In1-15" style="edgeStyle=orthogonalEdgeStyle;rounded=0;orthogonalLoop=1;jettySize=auto;html=1;entryX=0.5;entryY=0;entryDx=0;entryDy=0;" edge="1" parent="WIyWlLk6GJQsqaUBKTNV-1" source="Ay1wKtTU1ei7NYkO6In1-14" target="WIyWlLk6GJQsqaUBKTNV-3">
          <mxGeometry relative="1" as="geometry" />
        </mxCell>
        <mxCell id="Ay1wKtTU1ei7NYkO6In1-16" value="" style="edgeStyle=orthogonalEdgeStyle;rounded=0;orthogonalLoop=1;jettySize=auto;html=1;" edge="1" parent="WIyWlLk6GJQsqaUBKTNV-1" source="Ay1wKtTU1ei7NYkO6In1-14" target="WIyWlLk6GJQsqaUBKTNV-3">
          <mxGeometry relative="1" as="geometry" />
        </mxCell>
        <mxCell id="Ay1wKtTU1ei7NYkO6In1-17" value="" style="edgeStyle=orthogonalEdgeStyle;rounded=0;orthogonalLoop=1;jettySize=auto;html=1;" edge="1" parent="WIyWlLk6GJQsqaUBKTNV-1" source="Ay1wKtTU1ei7NYkO6In1-14" target="WIyWlLk6GJQsqaUBKTNV-3">
          <mxGeometry relative="1" as="geometry" />
        </mxCell>
        <mxCell id="Ay1wKtTU1ei7NYkO6In1-14" value="Actor" style="shape=umlActor;verticalLabelPosition=bottom;verticalAlign=top;html=1;outlineConnect=0;" vertex="1" parent="WIyWlLk6GJQsqaUBKTNV-1">
          <mxGeometry x="425" y="-10" width="30" height="60" as="geometry" />
        </mxCell>
        <mxCell id="Ay1wKtTU1ei7NYkO6In1-21" value="Generate Receipt&lt;br&gt;And Sent to tenant&amp;nbsp;&lt;br&gt;Mark this payment record in DB as paid in full as true&amp;nbsp;" style="whiteSpace=wrap;html=1;aspect=fixed;" vertex="1" parent="WIyWlLk6GJQsqaUBKTNV-1">
          <mxGeometry x="390" y="700" width="110" height="110" as="geometry" />
        </mxCell>
        <mxCell id="Ay1wKtTU1ei7NYkO6In1-25" value="Should display amount owed first&amp;nbsp; (Different process&#39;s but is dependent on this proccess)" style="whiteSpace=wrap;html=1;shape=mxgraph.basic.document" vertex="1" parent="WIyWlLk6GJQsqaUBKTNV-1">
          <mxGeometry x="550" y="-70" width="120" height="130" as="geometry" />
        </mxCell>
        <mxCell id="Ay1wKtTU1ei7NYkO6In1-30" value="Save to payment table&lt;br&gt;not paid in full&amp;nbsp;" style="whiteSpace=wrap;html=1;aspect=fixed;" vertex="1" parent="WIyWlLk6GJQsqaUBKTNV-1">
          <mxGeometry x="110" y="505" width="85" height="85" as="geometry" />
        </mxCell>
        <mxCell id="Ay1wKtTU1ei7NYkO6In1-37" style="edgeStyle=orthogonalEdgeStyle;rounded=0;orthogonalLoop=1;jettySize=auto;html=1;entryX=0.5;entryY=0;entryDx=0;entryDy=0;" edge="1" parent="WIyWlLk6GJQsqaUBKTNV-1" source="Ay1wKtTU1ei7NYkO6In1-33" target="Ay1wKtTU1ei7NYkO6In1-36">
          <mxGeometry relative="1" as="geometry" />
        </mxCell>
        <mxCell id="Ay1wKtTU1ei7NYkO6In1-33" value="Payment Calculation Service&lt;br&gt;&lt;br&gt;We can query payment table&amp;nbsp; for all the unpaid amounts and loop over and add up the amount owned&lt;br&gt;If something changed we&amp;nbsp; update tenant unpaid field&amp;nbsp;" style="whiteSpace=wrap;html=1;aspect=fixed;" vertex="1" parent="WIyWlLk6GJQsqaUBKTNV-1">
          <mxGeometry x="359.25" y="-1140" width="150" height="150" as="geometry" />
        </mxCell>
        <mxCell id="Ay1wKtTU1ei7NYkO6In1-41" style="edgeStyle=orthogonalEdgeStyle;rounded=0;orthogonalLoop=1;jettySize=auto;html=1;" edge="1" parent="WIyWlLk6GJQsqaUBKTNV-1" source="Ay1wKtTU1ei7NYkO6In1-36">
          <mxGeometry relative="1" as="geometry">
            <mxPoint x="195" y="-793" as="targetPoint" />
          </mxGeometry>
        </mxCell>
        <mxCell id="Ay1wKtTU1ei7NYkO6In1-42" value="Noi" style="edgeLabel;html=1;align=center;verticalAlign=middle;resizable=0;points=[];" vertex="1" connectable="0" parent="Ay1wKtTU1ei7NYkO6In1-41">
          <mxGeometry x="0.1492" y="2" relative="1" as="geometry">
            <mxPoint as="offset" />
          </mxGeometry>
        </mxCell>
        <mxCell id="Ay1wKtTU1ei7NYkO6In1-36" value="If current month &lt;br&gt;rent is pass due and not marked&lt;br&gt;paid in full" style="rhombus;whiteSpace=wrap;html=1;" vertex="1" parent="WIyWlLk6GJQsqaUBKTNV-1">
          <mxGeometry x="330" y="-880" width="208.5" height="174" as="geometry" />
        </mxCell>
        <mxCell id="Ay1wKtTU1ei7NYkO6In1-46" style="edgeStyle=orthogonalEdgeStyle;rounded=0;orthogonalLoop=1;jettySize=auto;html=1;" edge="1" parent="WIyWlLk6GJQsqaUBKTNV-1" source="Ay1wKtTU1ei7NYkO6In1-38">
          <mxGeometry relative="1" as="geometry">
            <mxPoint x="445" y="-350" as="targetPoint" />
          </mxGeometry>
        </mxCell>
        <mxCell id="Ay1wKtTU1ei7NYkO6In1-38" value="Add late fee to rent&lt;br&gt;&lt;br&gt;And add Next Month rent" style="whiteSpace=wrap;html=1;aspect=fixed;" vertex="1" parent="WIyWlLk6GJQsqaUBKTNV-1">
          <mxGeometry x="380" y="-610" width="130" height="130" as="geometry" />
        </mxCell>
        <mxCell id="Ay1wKtTU1ei7NYkO6In1-39" style="edgeStyle=orthogonalEdgeStyle;rounded=0;orthogonalLoop=1;jettySize=auto;html=1;entryX=0.438;entryY=0.008;entryDx=0;entryDy=0;entryPerimeter=0;" edge="1" parent="WIyWlLk6GJQsqaUBKTNV-1" source="Ay1wKtTU1ei7NYkO6In1-36" target="Ay1wKtTU1ei7NYkO6In1-38">
          <mxGeometry relative="1" as="geometry" />
        </mxCell>
        <mxCell id="Ay1wKtTU1ei7NYkO6In1-40" value="Yes" style="edgeLabel;html=1;align=center;verticalAlign=middle;resizable=0;points=[];" vertex="1" connectable="0" parent="Ay1wKtTU1ei7NYkO6In1-39">
          <mxGeometry x="-0.1225" y="-1" relative="1" as="geometry">
            <mxPoint as="offset" />
          </mxGeometry>
        </mxCell>
        <mxCell id="Ay1wKtTU1ei7NYkO6In1-45" value="A cron job that runs everyday" style="whiteSpace=wrap;html=1;shape=mxgraph.basic.document" vertex="1" parent="WIyWlLk6GJQsqaUBKTNV-1">
          <mxGeometry x="600" y="-1150" width="100" height="100" as="geometry" />
        </mxCell>
        <mxCell id="Ay1wKtTU1ei7NYkO6In1-47" value="Send&amp;nbsp; notification to tenant they are bring charged late fee" style="whiteSpace=wrap;html=1;" vertex="1" parent="WIyWlLk6GJQsqaUBKTNV-1">
          <mxGeometry x="385" y="-350" width="120" height="60" as="geometry" />
        </mxCell>
        <mxCell id="Ay1wKtTU1ei7NYkO6In1-48" style="edgeStyle=orthogonalEdgeStyle;rounded=0;orthogonalLoop=1;jettySize=auto;html=1;exitX=0.5;exitY=1;exitDx=0;exitDy=0;entryX=0.75;entryY=1;entryDx=0;entryDy=0;" edge="1" parent="WIyWlLk6GJQsqaUBKTNV-1" source="Ay1wKtTU1ei7NYkO6In1-47" target="Ay1wKtTU1ei7NYkO6In1-47">
          <mxGeometry relative="1" as="geometry">
            <Array as="points">
              <mxPoint x="450" y="-290" />
              <mxPoint x="450" y="-290" />
            </Array>
          </mxGeometry>
        </mxCell>
        <mxCell id="Ay1wKtTU1ei7NYkO6In1-51" style="edgeStyle=orthogonalEdgeStyle;rounded=0;orthogonalLoop=1;jettySize=auto;html=1;" edge="1" parent="WIyWlLk6GJQsqaUBKTNV-1" source="Ay1wKtTU1ei7NYkO6In1-49" target="Ay1wKtTU1ei7NYkO6In1-53">
          <mxGeometry relative="1" as="geometry">
            <mxPoint x="97.5" y="-560" as="targetPoint" />
          </mxGeometry>
        </mxCell>
        <mxCell id="Ay1wKtTU1ei7NYkO6In1-52" value="Yes" style="edgeLabel;html=1;align=center;verticalAlign=middle;resizable=0;points=[];" vertex="1" connectable="0" parent="Ay1wKtTU1ei7NYkO6In1-51">
          <mxGeometry x="-0.2598" y="-1" relative="1" as="geometry">
            <mxPoint as="offset" />
          </mxGeometry>
        </mxCell>
        <mxCell id="Ay1wKtTU1ei7NYkO6In1-54" style="edgeStyle=orthogonalEdgeStyle;rounded=0;orthogonalLoop=1;jettySize=auto;html=1;entryX=1;entryY=0.5;entryDx=0;entryDy=0;" edge="1" parent="WIyWlLk6GJQsqaUBKTNV-1" source="Ay1wKtTU1ei7NYkO6In1-49" target="Ay1wKtTU1ei7NYkO6In1-50">
          <mxGeometry relative="1" as="geometry" />
        </mxCell>
        <mxCell id="Ay1wKtTU1ei7NYkO6In1-55" value="No" style="edgeLabel;html=1;align=center;verticalAlign=middle;resizable=0;points=[];" vertex="1" connectable="0" parent="Ay1wKtTU1ei7NYkO6In1-54">
          <mxGeometry x="-0.0133" y="4" relative="1" as="geometry">
            <mxPoint as="offset" />
          </mxGeometry>
        </mxCell>
        <mxCell id="Ay1wKtTU1ei7NYkO6In1-49" value="Check if we are five days out from due date" style="rhombus;whiteSpace=wrap;html=1;" vertex="1" parent="WIyWlLk6GJQsqaUBKTNV-1">
          <mxGeometry x="20" y="-886" width="165" height="186" as="geometry" />
        </mxCell>
        <mxCell id="Ay1wKtTU1ei7NYkO6In1-56" style="edgeStyle=orthogonalEdgeStyle;rounded=0;orthogonalLoop=1;jettySize=auto;html=1;" edge="1" parent="WIyWlLk6GJQsqaUBKTNV-1" source="Ay1wKtTU1ei7NYkO6In1-50" target="Ay1wKtTU1ei7NYkO6In1-57">
          <mxGeometry relative="1" as="geometry">
            <mxPoint x="-225" y="-540" as="targetPoint" />
          </mxGeometry>
        </mxCell>
        <mxCell id="Ay1wKtTU1ei7NYkO6In1-50" value="If today is due date of rent&amp;nbsp;&lt;br&gt;Send to tenant&lt;br&gt;email notification&amp;nbsp;&lt;br&gt;Rent is due today" style="rhombus;whiteSpace=wrap;html=1;" vertex="1" parent="WIyWlLk6GJQsqaUBKTNV-1">
          <mxGeometry x="-320" y="-883" width="190" height="180" as="geometry" />
        </mxCell>
        <mxCell id="Ay1wKtTU1ei7NYkO6In1-53" value="Send Email to tenant letting them know&amp;nbsp; rent is due in five days" style="whiteSpace=wrap;html=1;aspect=fixed;" vertex="1" parent="WIyWlLk6GJQsqaUBKTNV-1">
          <mxGeometry x="57.5" y="-580" width="80" height="80" as="geometry" />
        </mxCell>
        <mxCell id="Ay1wKtTU1ei7NYkO6In1-57" value="Send Email&lt;br&gt;letting tenant know rent is due today at 12:00pm&amp;nbsp;" style="whiteSpace=wrap;html=1;aspect=fixed;" vertex="1" parent="WIyWlLk6GJQsqaUBKTNV-1">
          <mxGeometry x="-265" y="-570" width="80" height="80" as="geometry" />
        </mxCell>
      </root>
    </mxGraphModel>
  </diagram>
</mxfile>
